<svg id="sprite" xmlns="http://www.w3.org/2000/svg" width="700" height="1000" viewBox="0 0 700 1000"><defs><style>.cls-1,.cls-13,.cls-20,.cls-21,.cls-7,.cls-8{fill:none;}.cls-2{fill:#4c6db3;}.cls-3{fill:#f5dab9;}.cls-4{fill:#f28d30;}.cls-5{fill:#f6f3f0;stroke-width:1.13px;}.cls-17,.cls-5{stroke:#fafaf8;}.cls-13,.cls-17,.cls-18,.cls-20,.cls-21,.cls-5,.cls-6,.cls-7,.cls-8{stroke-miterlimit:10;}.cls-18,.cls-6{fill:#faf9f8;stroke:#fff;}.cls-6{stroke-width:1.05px;}.cls-20,.cls-7{stroke:#f5f9fa;}.cls-7{stroke-width:0.56px;}.cls-8{stroke:#eee544;stroke-width:6.33px;}.cls-9{fill:#eee544;}.cls-10{fill:#e61f44;}.cls-11{fill:#74acc1;}.cls-12{fill:#d6dddf;}.cls-13{stroke:#f8f8f2;stroke-width:1.02px;}.cls-14{fill:#82cded;}.cls-15{fill:#f5dbba;}.cls-16{fill:#f28e32;}.cls-17{fill:#f7f4f2;stroke-width:1.09px;}.cls-18{stroke-width:1.01px;}.cls-19{fill:#f5f9fa;}.cls-20{stroke-width:0.54px;}.cls-21{stroke:#efe642;stroke-width:6.12px;}.cls-22{fill:#efe642;}.cls-23{fill:#e61f43;}.cls-24{fill:#73aec1;}.cls-25{fill:#d7dee0;}</style></defs><title>animation_lilly</title><path class="cls-1" d="M2.53,312.13l-.2-.7"/><path class="cls-2" d="M55.53,892.62c0-2.32,4.18-37.15,16.31-64a74.8,74.8,0,0,0,6.39-37.29c-1.52-17.52-2.8-40.84,0-51.22a7.4,7.4,0,0,0-2.63-7.74c-9.46-7.31-28.65-29.84-22.29-90a45.42,45.42,0,0,0-8.08-31.08l-13.54-19,40,19.58s39.41,25.73,42.75,62.09S156,712,156,712h61.62s35-20.69,38.87-36.92,28.87-52,75-68.24c0,0-24.43,31.89-26.1,94.53,0,0-5.76,24.5-37.75,35.24,0,0,32,24.64,23.87,74.39,0,0-3.88,49.23,28.87,81.67,0,0-24.66-5.48-50.53-33a84.38,84.38,0,0,1-19.51-33.91c-2.72-9.2-10.6-24.21-32.67-43.86H134.37s17.21,20.69-28.87,54.25S55.53,892.62,55.53,892.62Z"/><path class="cls-3" d="M167.42,800.64l.15,18.46a10.3,10.3,0,0,1-3.15,7.6c-3.11,2.93-5.73,1.75-7.55-.08a9.79,9.79,0,0,1-2.72-6.8L154,800.75Z"/><path class="cls-3" d="M195.49,800.65l.08,18.46a10.28,10.28,0,0,1-3.17,7.6c-3.12,2.91-5.74,1.72-7.54-.12a9.78,9.78,0,0,1-2.71-6.8l-.09-19.08Z"/><path class="cls-3" d="M154.89,753.36l-18.56,9.8A11.36,11.36,0,0,0,131,769c-.95,2.54-.9,5.46,3.38,6.75a11.9,11.9,0,0,0,8.88-1.06l18-9.57Z"/><path class="cls-3" d="M195.76,751.51l18,11.77a13,13,0,0,1,5.64,7.52c1.11,4.48-1.49,5.9-4.27,6.22a12.45,12.45,0,0,1-8.11-2.11l-18.6-12.16Z"/><polygon class="cls-4" points="160.9 736 131.26 805.92 215.16 805.92 192.78 736 160.9 736"/><path class="cls-3" d="M229.28,723.51c-21.51,12-58.6,25-96.87,2.69-23.89-13.91-34.1-36.81-26.79-58.46,7-20.83,20.89-45.81,47.37-49.18a27.18,27.18,0,0,0,3.76-.74c9.06-2.54,51.8-11.86,87,25.95a35.32,35.32,0,0,1,6.91,10.65c4,9.73,4.36,23.77,1.33,40.3C249.91,706.12,241.8,716.51,229.28,723.51Z"/><path class="cls-5" d="M163.16,658.66l.3.63s5,21.14-4.43,26.61c-3.55,2.06-4.82,3.08-7.89,4-13.08,3.8-27.89-1.34-32.27-11.35a16,16,0,0,1-1.37-6,58.92,58.92,0,0,1,.13-9.28C119.78,644.38,154.41,640.94,163.16,658.66Z"/><path class="cls-6" d="M220.34,648.56c7.44,2.35,16.75,8,17.69,23.06.42,6.75-3.78,13.29-11.44,16.91-4.74,2.25-11.09,3.58-19.29,2.1-10.55-1.9-16.69-10.33-18.7-18.27-1.71-6.75-2-16.85,9-22.38C204.28,646.6,212.88,646.21,220.34,648.56Z"/><polyline class="cls-7" points="174.82 683.52 173.21 688 174.82 692.18"/><path class="cls-8" d="M247.31,736.38c6.92-8.26-8-19.6-1.74-28.13,1.82-2.46,5.12-4.12,7.58-6.26,6.4-5.57,6.45-13.71,4.41-20.83s-5.81-14.06-5.95-21.34c-.09-5.4,1.83-10.82.73-16.16-2.06-10-14.06-17.22-26.08-22.2-11.59-4.81-24.54-8.57-37.84-8.08-10.34,0-26.08-.12-36.41-.15-2.83,0-5.79,0-8.29,1-6.78,2.6-6.48,10.3-12.55,13.71-2.34,1.32-5.34,1.81-8,2.66A25.15,25.15,0,0,0,105.37,653c-.7,9.09,2.35,18.1,2.9,27.19.15,2.54,0,5.26-1.92,7.35s-5.4,3.17-7.49,5.18a9.51,9.51,0,0,0-2.67,5.83c-1,7.08,1.78,14.41,7.65,20.08"/><path class="cls-9" d="M192,566c19,0,34.37,11.23,34.37,25.08S211,616.11,192,616.11,157.62,604.88,157.62,591,173,566,192,566"/><ellipse class="cls-10" cx="190.8" cy="606.89" rx="4.61" ry="32.37" transform="translate(-423.48 772.35) rotate(-87.62)"/><ellipse class="cls-11" cx="137.1" cy="674.05" rx="14.26" ry="14.32"/><ellipse class="cls-11" cx="210.09" cy="675.02" rx="13.98" ry="13.91"/><ellipse class="cls-12" cx="128.08" cy="658.26" rx="2.37" ry="1.73"/><ellipse class="cls-12" cx="235.05" cy="642.04" rx="2.37" ry="1.73"/><ellipse class="cls-12" cx="217.01" cy="652.72" rx="1.73" ry="2.37" transform="translate(-312.92 214.19) rotate(-32)"/><ellipse class="cls-12" cx="133.25" cy="651.6" rx="2.37" ry="1.73"/><ellipse class="cls-12" cx="227.08" cy="658.32" rx="2.37" ry="1.73"/><path class="cls-9" d="M150.5,627.83c2,.54,4.15,1,5.44,2.14s1.41,2.4,1.77,3.68c1.7,6,8.25,11.33,16.9,13.75l-3.56-16.56c7.25-.32,12.23,4.53,15.24,8.82s7,9.3,14.22,9.83c2-5.41.58-11.33-3.9-16.09L208,635c4.65,6.42,17.76,7.54,28.7,7.8-2.18-9.88-5.82-21.18-19.41-25.88-6.76-2.34-14.75-2.51-22.42-2.62-14.43-.22-40.28-4-53.68-.82C124.79,617.35,138.45,624.56,150.5,627.83Z"/><path class="cls-13" d="M191.07,713.06c-.09-2-2.13-3.79-4.67-4.77a26.07,26.07,0,0,0-8.42-1.35,20.42,20.42,0,0,0-7,.71,17.88,17.88,0,0,0-3.89,2c-1.58,1-3.2,2-4,3.4"/><path class="cls-14" d="M132.47,701.32a62.17,62.17,0,0,0-9.09,21.23,5.5,5.5,0,0,0,0,3.31c.67,1.59,2.52,2.15,4.15,2.53,4.13,1,9.55,1.35,11.48-2.56a8.76,8.76,0,0,0,.51-4.85c-.83-6.88-4.38-13-7.85-19"/><path class="cls-14" d="M212.65,696.25A62,62,0,0,0,205,718a5.55,5.55,0,0,0,.2,3.31c.77,1.54,2.66,2,4.31,2.25,4.18.69,9.62.72,11.28-3.31a8.69,8.69,0,0,0,.19-4.88c-1.28-6.81-5.23-12.72-9.09-18.4"/><path class="cls-2" d="M94.9,371.65c-.36-2.1-1.93-34.25,4.91-60.4a68.57,68.57,0,0,0,.06-34.7C95.8,260.94,91.07,240,92,230.23a6.76,6.76,0,0,0-3.56-6.6c-9.68-5.15-30.5-22.59-34-78a41.65,41.65,0,0,0-12.08-26.86L27.18,103.64l39.16,11.57s39.61,17.22,48.2,49.59,43.5,28,43.5,28l55.74-9.46s28.46-24.09,29.48-39.36,18.13-51.48,57.32-73.23c0,0-17.2,32.59-9.09,89.51,0,0-1.45,23-28.73,37.66,0,0,32.7,17.38,33,63.62,0,0,4,45.12,38.65,69.43,0,0-23.15-1.17-50.77-22.07a77.49,77.49,0,0,1-22.85-27.67c-3.87-7.9-13.31-20.27-36.28-34.66L149.2,259.37s18.74,16.08-17.79,53.51S94.9,371.65,94.9,371.65Z"/><path class="cls-1" d="M1.73,312.26l-.2-.7"/><path class="cls-1" d="M427.22,257.16l-.2-.69"/><path class="cls-2" d="M460.39,391.69c-.46-2.6-3.93-42.38.71-74.33A113.69,113.69,0,0,0,459,274.5C454.25,255,448.58,229,448.8,216.9c.06-3.35,7.27-6.13-3.69-8.32-11.26-2.26-29.44-29.42-36.13-98C407.75,98,403.23,86,396.2,76.79L381.31,57.34,418,73.58s37.46,23.24,47.4,63.64S507.13,174,507.13,174l50.6-8.91s24.63-28.33,24.61-47.14,13.4-62.67,48-87.58c0,0-13.75,39.39-2.71,110.09,0,0,.12,28.38-24,45.08,0,0,31.14,23.09,34.33,80.22,0,0,6.56,55.91,39.88,87.66,0,0-21.34-2.6-48-29.78a109.38,109.38,0,0,1-22.73-35.31c-4.06-9.95-13.5-25.7-35.51-44.61l-68.38,12s18.23,20.79-13,65.19S460.39,391.69,460.39,391.69Z"/><path class="cls-15" d="M535.7,301.46,532,318.92a9.91,9.91,0,0,1-4.54,6.55c-3.54,2.12-5.77.47-7.1-1.64a9.4,9.4,0,0,1-1.18-7L523,298.8Z"/><path class="cls-15" d="M570.05,292.56,567,310.13a10,10,0,0,1-4.33,6.69c-3.47,2.23-5.76.65-7.16-1.41a9.46,9.46,0,0,1-1.4-6.94l3.21-18.16Z"/><path class="cls-15" d="M517.41,263.47,505,277.1a9.37,9.37,0,0,0-2.53,6.6c.08,2.49,1.16,5.05,5.29,5A9.92,9.92,0,0,0,515,285.4l12-13.27Z"/><path class="cls-15" d="M559.56,261.51l5.53-17a9.92,9.92,0,0,1,5.22-6c3.75-1.73,5.79.16,6.89,2.39a9.43,9.43,0,0,1,.41,7.06l-5.71,17.54Z"/><polygon class="cls-16" points="522.3 236.16 505.8 307.7 585.67 293.63 552.65 230.82 522.3 236.16"/><path class="cls-15" d="M582.83,211c-18.46,15.05-51.6,33.61-91.78,18.81-25.07-9.24-38.63-29.33-35.3-51.17,3.2-21,12.22-47.11,36.85-54.76a25.42,25.42,0,0,0,3.47-1.34c8.2-3.93,47.32-20,87.19,10.13a33.85,33.85,0,0,1,8.36,9c5.41,8.6,8.14,21.91,8,38.15C599.56,191,593.58,202.29,582.83,211Z"/><path class="cls-17" d="M509.92,162.43l.39.54s8.3,19.3.24,26.09c-3,2.55-4.07,3.74-6.84,5.1-11.82,5.81-26.78,3.4-32.63-5.4a15.63,15.63,0,0,1-2.32-5.5,59.7,59.7,0,0,1-1.43-8.86C466.22,156.11,498.62,147,509.92,162.43Z"/><path class="cls-18" d="M562.66,143.23c7.48,1,17.29,4.85,20.71,19,1.53,6.35-1.37,13.28-8.06,18-4.13,2.93-10,5.26-18,5.23-10.36-.05-17.62-7-20.86-14.27-2.76-6.13-4.71-15.7,4.79-22.8C547.05,144.05,555.17,142.24,562.66,143.23Z"/><path class="cls-19" d="M522.06,209.85l19.17-3.37s5.42,8.93-7.37,11.18C533.86,217.66,521.8,220.88,522.06,209.85Z"/><polyline class="cls-20" points="525.18 184.14 524.4 188.68 526.64 192.39"/><path class="cls-21" d="M603.06,222.32c5.21-9-10.94-17.32-6.37-26.49,1.32-2.65,4.19-4.78,6.17-7.24,5.16-6.37,3.84-14.12.71-20.56s-7.9-12.42-9.24-19.32c-1-5.13-.08-10.61-2-15.51-3.64-9.17-16.27-14-28.55-16.77-11.84-2.63-24.8-4-37.39-1.34-9.84,1.7-24.84,4.26-34.68,6-2.7.47-5.51,1-7.74,2.31-6,3.61-4.44,10.89-9.64,15.16-2,1.65-4.78,2.62-7.23,3.88a24.34,24.34,0,0,0-13.14,24.31c.86,8.77,5.28,16.84,7.32,25.4.57,2.39.92,5-.6,7.32s-4.6,3.93-6.26,6.19a9.23,9.23,0,0,0-1.56,6c.23,6.91,4.11,13.42,10.65,17.84"/><path class="cls-22" d="M521.82,69.35c18.08-3.19,34.61,4.92,36.93,18.1s-10.45,26.45-28.52,29.63-34.6-4.92-36.93-18.1,10.45-26.45,28.52-29.63"/><ellipse class="cls-23" cx="527.12" cy="108.53" rx="31.29" ry="4.46" transform="matrix(1, -0.04, 0.04, 1, -3.65, 19.55)"/><ellipse class="cls-24" cx="489.68" cy="181.45" rx="13.79" ry="13.85" transform="matrix(0.98, -0.17, 0.17, 0.98, -24.05, 87.66)"/><ellipse class="cls-24" cx="555.02" cy="170.45" rx="13.52" ry="13.45" transform="translate(-21.15 98.82) rotate(-9.99)"/><ellipse class="cls-25" cx="476.45" cy="167.93" rx="2.29" ry="1.67" transform="translate(-21.9 85.16) rotate(-9.99)"/><ellipse class="cls-25" cx="575.58" cy="134.56" rx="2.29" ry="1.67" transform="translate(-14.61 101.84) rotate(-9.99)"/><ellipse class="cls-25" cx="560.2" cy="147.75" rx="1.67" ry="2.29" transform="translate(44.96 412.67) rotate(-41.99)"/><ellipse class="cls-25" cx="480.26" cy="160.72" rx="2.29" ry="1.67" transform="translate(-20.59 85.71) rotate(-9.99)"/><ellipse class="cls-25" cx="570.72" cy="151.39" rx="2.29" ry="1.67" transform="translate(-17.6 101.26) rotate(-9.99)"/><path class="cls-22" d="M492.69,135.2c2,.18,4.13.28,5.55,1.12s1.74,2.06,2.3,3.21c2.62,5.43,9.75,9.41,18.39,10.26l-6.17-15.17c6.86-1.52,12.41,2.26,16,5.84s8.21,7.68,15.18,7c1-5.49-1.35-10.89-6.41-14.66l11.13-.36c5.5,5.32,18.17,4.2,28.63,2.61-3.73-9-9.1-19.19-22.82-21.39-6.83-1.09-14.46.09-21.78,1.26-13.78,2.22-39,3-51.24,8.22C466.47,129.54,480.68,134.1,492.69,135.2Z"/><path class="cls-15" d="M186.92,302.15l-3.65,17.46a9.93,9.93,0,0,1-4.54,6.54c-3.54,2.12-5.78.48-7.11-1.63a9.42,9.42,0,0,1-1.18-7l3.78-18.05Z"/><path class="cls-15" d="M221.27,293.25l-3.1,17.57a10,10,0,0,1-4.33,6.69c-3.47,2.23-5.75.65-7.15-1.41a9.37,9.37,0,0,1-1.4-6.94l3.2-18.16Z"/><path class="cls-15" d="M168.63,264.16,156.2,277.79a9.42,9.42,0,0,0-2.53,6.6c.08,2.49,1.17,5.05,5.29,5a9.94,9.94,0,0,0,7.24-3.32l12-13.28Z"/><path class="cls-15" d="M210.78,262.2l5.53-17a10,10,0,0,1,5.22-6c3.75-1.73,5.79.15,6.89,2.39a9.38,9.38,0,0,1,.41,7.06l-5.71,17.54Z"/><polygon class="cls-16" points="173.52 236.85 157.02 308.39 236.9 294.32 203.88 231.51 173.52 236.85"/><path class="cls-15" d="M234.06,211.73c-18.47,15.05-51.61,33.61-91.78,18.81-25.08-9.24-38.63-29.33-35.31-51.17,3.2-21,12.22-47.11,36.86-54.76a25.29,25.29,0,0,0,3.46-1.34c8.2-3.94,47.32-20,87.19,10.12a33.89,33.89,0,0,1,8.36,9c5.41,8.6,8.15,21.91,8,38.15C250.78,191.72,244.8,203,234.06,211.73Z"/><path class="cls-17" d="M161.14,163.12l.39.54s8.31,19.3.24,26.09c-3,2.55-4.06,3.74-6.84,5.1-11.81,5.81-26.77,3.4-32.63-5.4A15.8,15.8,0,0,1,120,184a59.78,59.78,0,0,1-1.44-8.86C117.45,156.8,149.84,147.72,161.14,163.12Z"/><path class="cls-18" d="M213.89,143.92c7.47,1,17.29,4.85,20.7,19,1.54,6.35-1.37,13.28-8.05,18-4.14,2.93-10,5.26-18,5.23-10.36,0-17.62-7-20.86-14.27-2.76-6.14-4.71-15.7,4.8-22.8C198.27,144.74,206.39,142.93,213.89,143.92Z"/><path class="cls-19" d="M173.28,210.54l19.17-3.37s5.42,8.93-7.36,11.18C185.09,218.35,173,221.57,173.28,210.54Z"/><polyline class="cls-20" points="176.41 184.83 175.63 189.37 177.86 193.08"/><path class="cls-21" d="M254.28,223c5.21-9-10.94-17.32-6.36-26.49,1.32-2.65,4.18-4.78,6.16-7.24,5.16-6.37,3.84-14.12.71-20.56s-7.89-12.42-9.24-19.32c-1-5.13-.07-10.61-2-15.51-3.63-9.18-16.27-14-28.55-16.77-11.84-2.63-24.8-4-37.38-1.34-9.85,1.7-24.84,4.26-34.69,6-2.69.47-5.51,1-7.73,2.31-6,3.61-4.44,10.89-9.65,15.16-2,1.65-4.78,2.62-7.22,3.88a24.33,24.33,0,0,0-13.14,24.31c.85,8.77,5.27,16.84,7.32,25.4.57,2.39.91,5-.6,7.32s-4.61,3.93-6.26,6.18a9.28,9.28,0,0,0-1.57,6c.23,6.91,4.12,13.42,10.65,17.84"/><path class="cls-22" d="M173.05,70C191.12,66.85,207.65,75,210,88.14s-10.44,26.45-28.52,29.63-34.6-4.92-36.92-18.1S155,73.22,173.05,70"/><ellipse class="cls-23" cx="178.34" cy="109.22" rx="31.29" ry="4.46" transform="matrix(1, -0.04, 0.04, 1, -3.91, 6.66)"/><ellipse class="cls-24" cx="138.91" cy="182.14" rx="13.79" ry="13.85" transform="matrix(0.98, -0.17, 0.17, 0.98, -29.48, 26.85)"/><ellipse class="cls-24" cx="206.25" cy="171.14" rx="13.52" ry="13.45" transform="translate(-26.55 38.36) rotate(-9.99)"/><ellipse class="cls-25" cx="125.68" cy="168.62" rx="2.29" ry="1.67" transform="translate(-27.34 24.35) rotate(-9.99)"/><ellipse class="cls-25" cx="226.8" cy="135.25" rx="2.29" ry="1.67" transform="translate(-20.02 41.38) rotate(-9.99)"/><ellipse class="cls-25" cx="211.42" cy="148.44" rx="1.67" ry="2.29" transform="translate(-45.03 179.53) rotate(-41.99)"/><ellipse class="cls-25" cx="131.48" cy="161.41" rx="2.29" ry="1.67" transform="translate(-26 25.24) rotate(-9.99)"/><ellipse class="cls-25" cx="221.94" cy="152.07" rx="2.29" ry="1.67" transform="translate(-23.01 40.79) rotate(-9.99)"/><path class="cls-22" d="M143.92,135.89c2,.18,4.12.28,5.54,1.12s1.74,2.06,2.3,3.21c2.62,5.43,9.76,9.41,18.39,10.26L164,135.31c6.85-1.52,12.4,2.26,16,5.84s8.21,7.68,15.19,7c1-5.49-1.36-10.89-6.42-14.66l11.13-.36c5.51,5.32,18.17,4.2,28.63,2.61-3.73-9-9.09-19.19-22.82-21.39-6.83-1.09-14.46.09-21.78,1.26-13.77,2.22-39,3-51.24,8.22C117.69,130.23,131.9,134.79,143.92,135.89Z"/></svg>
