<svg id="sprite" xmlns="http://www.w3.org/2000/svg" viewBox="0 0 1750 2500"><defs><style>.cls-1{fill:#d7dee0;}.cls-2{fill:#84c496;}.cls-3{fill:#e8c19a;}.cls-4{fill:#6268ae;}.cls-14,.cls-18,.cls-22,.cls-28,.cls-32,.cls-36,.cls-5{fill:#f7f4f2;stroke:#fafaf8;}.cls-14,.cls-15,.cls-16,.cls-17,.cls-18,.cls-19,.cls-20,.cls-21,.cls-22,.cls-23,.cls-24,.cls-25,.cls-26,.cls-27,.cls-28,.cls-29,.cls-30,.cls-31,.cls-32,.cls-33,.cls-34,.cls-35,.cls-36,.cls-37,.cls-38,.cls-39,.cls-5,.cls-6,.cls-8,.cls-9{stroke-miterlimit:10;}.cls-5{stroke-width:0.92px;}.cls-15,.cls-19,.cls-23,.cls-29,.cls-33,.cls-37,.cls-6{fill:#faf9f8;}.cls-15,.cls-19,.cls-23,.cls-26,.cls-29,.cls-33,.cls-37,.cls-6{stroke:#fff;}.cls-6{stroke-width:0.86px;}.cls-7{fill:#f5f9fa;}.cls-16,.cls-17,.cls-20,.cls-21,.cls-24,.cls-25,.cls-26,.cls-27,.cls-30,.cls-31,.cls-34,.cls-35,.cls-38,.cls-39,.cls-8,.cls-9{fill:none;}.cls-16,.cls-20,.cls-24,.cls-30,.cls-34,.cls-38,.cls-8{stroke:#f5f9fa;}.cls-8{stroke-width:0.46px;}.cls-17,.cls-21,.cls-25,.cls-31,.cls-35,.cls-39,.cls-9{stroke:#552621;}.cls-9{stroke-width:5.18px;}.cls-10{fill:#552621;}.cls-11{fill:#8bcdcf;}.cls-12{fill:#a5cf93;}.cls-13{fill:#a6cf94;}.cls-14{stroke-width:0.99px;}.cls-15{stroke-width:0.92px;}.cls-16{stroke-width:0.49px;}.cls-17{stroke-width:5.53px;}.cls-18{stroke-width:0.94px;}.cls-19{stroke-width:0.87px;}.cls-20{stroke-width:0.46px;}.cls-21{stroke-width:5.24px;}.cls-22{stroke-width:0.94px;}.cls-23{stroke-width:0.87px;}.cls-24{stroke-width:0.46px;}.cls-25{stroke-width:5.25px;}.cls-26{stroke-width:0.87px;}.cls-27{stroke:#060707;stroke-width:0.49px;}.cls-28{stroke-width:0.98px;}.cls-29{stroke-width:0.91px;}.cls-30{stroke-width:0.48px;}.cls-31{stroke-width:5.49px;}.cls-32{stroke-width:0.87px;}.cls-33{stroke-width:0.81px;}.cls-34{stroke-width:0.43px;}.cls-35{stroke-width:4.89px;}.cls-36{stroke-width:0.93px;}.cls-37{stroke-width:0.86px;}.cls-38{stroke-width:0.46px;}.cls-39{stroke-width:5.21px;}</style></defs><title>animation_ella</title><ellipse class="cls-1" cx="1658.49" cy="220.6" rx="1.59" ry="2.14" transform="translate(212.23 1061.77) rotate(-37.76)"/><ellipse class="cls-1" cx="612.1" cy="222.63" rx="1.59" ry="2.14" transform="translate(-8.14 421.44) rotate(-37.76)"/><ellipse class="cls-1" cx="594.82" cy="221.97" rx="2.39" ry="1.43" transform="matrix(0, -1, 1, 0, 370.3, 815.83)"/><ellipse class="cls-1" cx="599.35" cy="232.19" rx="1.59" ry="2.14" transform="translate(-16.67 415.64) rotate(-37.76)"/><path class="cls-2" d="M512.75,255.56C502,290.22,481.1,310.31,463,307.26a26.52,26.52,0,0,1-16.38-10.47c-18.78-26.59,15.73-87.06,21.4-85a1.86,1.86,0,0,1,.5.32c.12-.18-61.92-36.7-60-68,.86-13.84,14.3-27.25,28-29.18,31.84-4.47,102.6,91.34,79.15,65.61h0l23.73-5.43c-13-51.39-2.49-92.79,18.34-101.88,10.93-4.77,25.13-.82,34.54,6.8,21.93,17.73,12.31,55.86,11.56,62.27-2.66,22.81-8.59,36-14,42.45,32.44,31.17,51.25,61.65,48.42,76.06a34.5,34.5,0,0,1-6.17,14,26.26,26.26,0,0,1-16,9.08c-14.15,2.46-26.25-8-32.55-13.42-14.35-12.38-20.62-28.32-23.23-36.62L516,244.05Z"/><path class="cls-3" d="M518.57,280.2,513,294.33a8.39,8.39,0,0,1-4.71,4.81c-3.23,1.25-4.82-.48-5.61-2.45a8.19,8.19,0,0,1,.07-6L508.5,276Z"/><path class="cls-3" d="M555,278.17l-4.37,14.58A8.49,8.49,0,0,1,546.3,298c-3.11,1.53-4.85,0-5.8-1.94a8.22,8.22,0,0,1-.45-6l4.52-15.06Z"/><path class="cls-3" d="M514.4,244.94,502.56,255a8.28,8.28,0,0,0-2.9,5.23c-.26,2.07.3,4.29,3.65,4.66a8.39,8.39,0,0,0,6.3-2.07L521.07,253Z"/><path class="cls-3" d="M548.5,231l9.92-11.4a8.27,8.27,0,0,1,6-2.92c3.45-.07,4.39,2.1,4.48,4.23a8.1,8.1,0,0,1-2,5.67l-10.25,11.78Z"/><polygon class="cls-4" points="522.47 217.32 503.21 285.07 576.15 277.45 550.18 214.43 522.47 217.32"/><path class="cls-3" d="M579.59,197c-15.87,12.31-44.11,27.18-77.28,13.37-20.7-8.62-31.46-26.17-28.05-44.72,3.27-17.84,11.56-39.86,32.38-45.67a21.65,21.65,0,0,0,2.93-1c7-3.12,40.14-15.66,72.62,11.2a28.65,28.65,0,0,1,6.73,7.91c4.28,7.5,6.18,18.94,5.62,32.8C594.15,180.38,588.82,189.81,579.59,197Z"/><path class="cls-5" d="M520.44,152.8l.29.49s5.77,17-1.37,22.24c-2.69,2-3.62,2.94-6,3.93-10.21,4.22-22.55,1.24-26.9-6.62a13.5,13.5,0,0,1-1.6-4.83,51.87,51.87,0,0,1-.66-7.64C484.36,144.72,511.94,139,520.44,152.8Z"/><path class="cls-6" d="M565.62,139.71c6.17,1.3,14.13,5.19,16.12,17.45.9,5.51-2,11.24-7.81,14.86a24.77,24.77,0,0,1-15.35,3.34c-8.64-.68-14.27-7.09-16.54-13.44-1.93-5.4-3-13.67,5.38-19.14A24.71,24.71,0,0,1,565.62,139.71Z"/><path class="cls-7" d="M527.7,194l16.2-1.69s4,7.94-6.82,9.07C537.08,201.34,526.82,203.34,527.7,194Z"/><polyline class="cls-8" points="531.87 172.25 530.94 176.06 532.58 179.36"/><path class="cls-9" d="M594.53,209.59c4.9-7.37-8.07-15.43-3.7-23,1.26-2.17,3.78-3.81,5.58-5.78,4.69-5.11,4.06-11.8,1.84-17.48s-5.84-11.06-6.55-17c-.52-4.43.58-9-.74-13.34-2.48-8-12.73-13-22.81-16.05-9.72-3-20.45-5-31.11-3.45l-29.31,2.93a18.51,18.51,0,0,0-6.59,1.48c-5.24,2.71-4.37,9-9,12.33-1.77,1.28-4.14,1.93-6.26,2.86A20.84,20.84,0,0,0,473.47,153c.19,7.52,3.39,14.67,4.58,22.09.33,2.07.46,4.31-.95,6.2s-4.08,3.06-5.6,4.88a8,8,0,0,0-1.66,5c-.23,5.89,2.62,11.68,7.8,15.85"/><path class="cls-10" d="M536,72.23c15.27-1.6,28.57,6.33,29.71,17.71s-10.31,21.89-25.59,23.48-28.57-6.33-29.71-17.71S520.73,73.82,536,72.23"/><ellipse class="cls-11" cx="538.42" cy="105.95" rx="26.18" ry="3.81" transform="translate(-5.51 33.42) rotate(-3.54)"/><ellipse class="cls-12" cx="499.44" cy="168.67" rx="11.54" ry="11.83" transform="matrix(1, -0.02, 0.02, 1, -2.78, 8.46)"/><ellipse class="cls-13" cx="559.11" cy="161.57" rx="12.62" ry="12.42" transform="translate(378.69 714.89) rotate(-88.06)"/><ellipse class="cls-1" cx="497.54" cy="149.72" rx="1.92" ry="1.43" transform="translate(-13.36 55.16) rotate(-6.26)"/><ellipse class="cls-1" cx="576.91" cy="131.11" rx="1.92" ry="1.43" transform="translate(-10.86 63.71) rotate(-6.26)"/><ellipse class="cls-1" cx="563.28" cy="143.4" rx="1.41" ry="1.94" transform="translate(23.19 358.24) rotate(-35.97)"/><ellipse class="cls-1" cx="503.55" cy="149.59" rx="1.92" ry="1.42" transform="translate(-21.14 174.8) rotate(-19.3)"/><ellipse class="cls-1" cx="571.84" cy="147.15" rx="1.92" ry="1.43" transform="translate(-12.64 63.25) rotate(-6.26)"/><path class="cls-10" d="M507.71,127.54c1.65.27,3.43.49,4.56,1.3a5.47,5.47,0,0,1,1.73,2.88c1.86,4.78,7.57,8.61,14.72,9.87l-4.22-13.31c5.81-.87,10.21,2.7,13,6s6.39,7.06,12.25,6.89c1.17-4.62-.47-9.36-4.47-12.89l9.31.38c4.27,4.88,14.91,4.7,23.73,4-2.56-7.93-6.43-16.91-17.74-19.63-5.64-1.35-12.08-.82-18.25-.27-11.63,1-32.74.13-43.26,3.83C486.17,121.09,497.76,125.86,507.71,127.54Z"/><ellipse class="cls-1" cx="260.1" cy="717.7" rx="1.59" ry="2.14" transform="translate(-385.01 309.56) rotate(-37.76)"/><ellipse class="cls-1" cx="242.82" cy="717.04" rx="2.39" ry="1.43" transform="matrix(0, -1, 1, 0, -475.26, 956.78)"/><ellipse class="cls-1" cx="247.35" cy="727.26" rx="1.59" ry="2.14" transform="translate(-393.54 303.76) rotate(-37.76)"/><path class="cls-2" d="M146.86,781.47s-43.62,48.61-90.34,21.76c-51.48-29.59,54.57-98.86,61.4-91.62S45.54,653.32,80.58,603.45,188,702.14,188,702.14l30,6s41.73-127.42,75.16-95.88,13.06,123.45-11.79,132.36c0,0,26.36,48.7-15.92,84.06-8.23,6.88-11.78,8.56-14.16,9a28.12,28.12,0,0,0-4.84,1.38c-7.83,2.94-30.78,6-32.57-58.17l-56.18-11.23Z"/><path class="cls-3" d="M162.9,796.11l-9.56,13a8.89,8.89,0,0,1-6.16,3.66c-3.69.4-4.89-1.81-5.18-4a8.66,8.66,0,0,1,1.66-6.2l9.88-13.44Z"/><path class="cls-3" d="M192.31,799.18l-7.26,14.44a9,9,0,0,1-5.46,4.66c-3.57,1-5.12-1-5.79-3.12a8.6,8.6,0,0,1,.62-6.39l7.5-14.93Z"/><path class="cls-3" d="M159.11,758.38l-14.81,7.5a8.5,8.5,0,0,0-4.26,4.77c-.73,2.14-.65,4.66,2.82,6a8.86,8.86,0,0,0,7.14-.46l14.34-7.33Z"/><path class="cls-3" d="M195.07,770.46l10.11-12.57a8.89,8.89,0,0,1,6.31-3.4c3.7-.23,4.81,2,5,4.28a8.56,8.56,0,0,1-1.93,6.12l-10.44,13Z"/><polygon class="cls-4" points="172.01 736.84 135.11 792.08 206.61 806.2 199.18 742.2 172.01 736.84"/><path class="cls-3" d="M230.86,735.28c-20.33,6.73-54.1,11.66-83-14-18-16-22.93-37.45-13.1-54.87,9.46-16.76,25.43-35.94,48.55-34.39a23.26,23.26,0,0,0,3.34,0c8.14-.66,46.11-1.5,69.83,37a31.17,31.17,0,0,1,4.11,10.34c1.76,9-.24,21.21-5.58,34.94C251.33,723.78,242.69,731.36,230.86,735.28Z"/><path class="cls-14" d="M185.41,670.31l.15.6s.74,19.05-8.21,22.18c-3.36,1.17-4.61,1.84-7.38,2.09-11.78,1.07-23.54-5.85-25.61-15.21a14.33,14.33,0,0,1-.16-5.42,53.35,53.35,0,0,1,1.65-8C150.82,650.72,180.9,653.58,185.41,670.31Z"/><path class="cls-15" d="M235.82,671.24c5.94,3.27,12.93,9.74,11.23,22.84-.76,5.89-5.43,10.81-12.56,12.64-4.42,1.14-10.05,1.22-16.79-1.44-8.67-3.41-12.5-11.71-12.89-18.88-.33-6.1,1.12-14.85,11.38-17.77C222.46,666.85,229.85,668,235.82,671.24Z"/><polyline class="cls-16" points="191.21 693.69 189.09 697.28 189.76 701.15"/><path class="cls-17" d="M244.17,751.43c7.28-5.95-3.58-18.24,3.21-24.52,2-1.82,5.05-2.69,7.5-4.13,6.38-3.72,7.78-10.72,7.23-17.19s-2.62-13.1-1.52-19.39c.82-4.67,3.36-9,3.31-13.8-.09-9-9.11-17.19-18.53-23.51-9.07-6.09-19.48-11.51-30.9-13.33l-31-6.26a20.1,20.1,0,0,0-7.23-.56c-6.21,1.09-7.23,7.78-13,9.7-2.22.74-4.85.66-7.31.93a21.94,21.94,0,0,0-18.85,16.32c-2.11,7.71-1,16-2.05,23.91-.3,2.21-.85,4.53-2.87,6s-5.12,1.82-7.24,3.2a8.38,8.38,0,0,0-3.24,4.57c-2,5.93-.88,12.71,3.17,18.59"/><path class="cls-10" d="M225.41,595.32c16.17,3.19,27.42,15.45,25.11,27.38s-17.29,19-33.46,15.81-27.42-15.45-25.12-27.38,17.29-19,33.47-15.81"/><ellipse class="cls-11" cx="217.58" cy="630.37" rx="4.05" ry="28.12" transform="translate(-446.25 693.88) rotate(-76.42)"/><ellipse class="cls-12" cx="163.88" cy="680.33" rx="12.57" ry="12.39" transform="translate(-524.19 807.83) rotate(-86.95)"/><ellipse class="cls-1" cx="155.3" cy="665.56" rx="1.52" ry="2.06" transform="translate(-527.85 685.65) rotate(-78.55)"/><ellipse class="cls-1" cx="249.44" cy="668.1" rx="1.52" ry="2.06" transform="translate(-454.88 779.96) rotate(-78.55)"/><ellipse class="cls-1" cx="232.29" cy="674.26" rx="1.5" ry="2.08" transform="translate(-219.35 122.35) rotate(-20.28)"/><ellipse class="cls-1" cx="159.08" cy="658.8" rx="1.52" ry="2.06" transform="translate(-518.2 683.94) rotate(-78.55)"/><ellipse class="cls-1" cx="239.94" cy="680.78" rx="1.52" ry="2.06" transform="translate(-474.92 780.81) rotate(-78.55)"/><path class="cls-10" d="M179.75,641.63c1.6.79,3.37,1.58,4.29,2.75a5.92,5.92,0,0,1,.89,3.48c.45,5.45,5.14,11.15,12.11,14.68l-.28-14.87c6.24,1,9.67,6,11.53,10.17s4.4,9.19,10.47,10.86c2.62-4.32,2.38-9.66-.64-14.51l9.44,3.32c2.9,6.31,13.88,9.49,23.16,11.54-.21-8.87-1.44-19.22-12.23-25.55-5.38-3.16-12.15-4.65-18.67-6-12.26-2.62-33.66-10.2-45.6-9.75C159.59,628.28,170,636.78,179.75,641.63Z"/><ellipse class="cls-7" cx="185.97" cy="718.99" rx="13.22" ry="10.24"/><ellipse class="cls-12" cx="221.23" cy="690.01" rx="12.68" ry="12.82"/><ellipse class="cls-1" cx="956.48" cy="749.13" rx="1.59" ry="2.14" transform="translate(-166.93 286.53) rotate(-15.69)"/><ellipse class="cls-1" cx="940.71" cy="742.02" rx="2.39" ry="1.43" transform="translate(-102.96 1330.49) rotate(-67.68)"/><ellipse class="cls-1" cx="941.08" cy="753.2" rx="1.59" ry="2.14" transform="translate(-168.6 282.51) rotate(-15.69)"/><path class="cls-2" d="M827.34,772.78s-55.79,26.87-87.55-13.35c-35-44.31,83.26-66.87,86.74-58.09s-43.31-76.9,5.33-107.94,60,124.79,60,124.79l24.4,16s105.14-75.57,123.51-36-55.32,91.73-80.44,90.62c0,0,4.8,63.34-45.1,79.1-9.71,3.07-15-.35-17.23-.82a51,51,0,0,1-5.19-2c-2-.85-4.16-1.23-6.17-2-10.87-4.31-18.09-15.08,1.19-66.75l-45.66-29.94Z"/><path class="cls-3" d="M837.34,786.77l-9.88,11.66a8.54,8.54,0,0,1-6.08,3.08c-3.53.15-4.54-2-4.69-4.13a8.11,8.11,0,0,1,2-5.74l10.21-12Z"/><path class="cls-3" d="M859.61,805.62l-9.88,11.67a8.53,8.53,0,0,1-6.09,3.07c-3.53.15-4.54-2-4.68-4.13a8,8,0,0,1,2-5.73l10.2-12.06Z"/><path class="cls-3" d="M851.26,751.93l-15.78-.72a8.11,8.11,0,0,0-5.73,1.95c-1.6,1.42-2.69,3.53-.41,6.24a8.52,8.52,0,0,0,6.15,2.94l15.32.64Z"/><path class="cls-3" d="M875.64,778.61l14.2-5.65a8.52,8.52,0,0,1,6.82.14c3.18,1.53,3.06,3.9,2.19,5.85a8,8,0,0,1-4.42,4.14l-14.68,5.85Z"/><polygon class="cls-4" points="871.92 740.2 815.78 768.51 868.79 813.4 892.07 757.25 871.92 740.2"/><path class="cls-3" d="M921.62,766.29c-20-3.91-50.4-15.57-62.65-50.13-7.66-21.57-1.85-41.5,14.35-51.27,15.58-9.4,37.71-17.76,56.24-5.73a23.06,23.06,0,0,0,2.78,1.55c7.08,3.24,39.07,20.21,41.09,62.95a29,29,0,0,1-1.33,10.43c-2.7,8.27-10,17.36-20.72,26.17C944,766.35,933.27,768.57,921.62,766.29Z"/><path class="cls-18" d="M913.69,691.65c-.05.19-.09.37-.14.56,0,0-8.16,16-17,14.45-3.34-.6-4.69-.63-7.11-1.71-10.29-4.6-16.9-15.77-14.31-24.45a13.24,13.24,0,0,1,2.35-4.53,49.82,49.82,0,0,1,5.05-5.8C893.92,659.42,917.64,675.77,913.69,691.65Z"/><path class="cls-19" d="M955.22,715.87c3.45,5.46,6.28,14-1.16,24-3.34,4.49-9.5,6.37-16.28,4.57a25.85,25.85,0,0,1-13.31-9c-5.64-6.85-5-15.46-2-21.55,2.53-5.18,7.76-11.7,17.64-9.33A25.68,25.68,0,0,1,955.22,715.87Z"/><polyline class="cls-20" points="907.76 713.6 904.34 715.57 903.12 719.07"/><path class="cls-21" d="M925.27,785.78c8.8-1.51,5.41-16.68,14-18.7,2.47-.58,5.44.14,8.14.1,7-.09,11.41-5.21,13.93-10.8s3.85-12,7.66-16.66c2.83-3.47,6.94-5.86,9.11-9.83,4-7.42.33-18.4-4.6-28-4.76-9.24-10.93-18.55-19.6-25.35-6.51-5.55-16.41-14-22.92-19.58a19.33,19.33,0,0,0-5.75-3.83c-5.68-2-9.61,3.05-15.27,2-2.18-.42-4.34-1.71-6.51-2.62a20.83,20.83,0,0,0-23.21,4.66c-5.3,5.37-8.19,12.7-12.71,18.73-1.26,1.69-2.78,3.34-5.14,3.61s-5.11-.88-7.51-.73a7.91,7.91,0,0,0-4.8,2.26c-4.43,3.93-6.59,10-5.91,16.78"/><path class="cls-10" d="M981.5,648.51c12,10.15,15.71,25.48,8.3,34.23s-23.13,7.61-35.13-2.55S939,654.71,946.37,646s23.14-7.61,35.13,2.55"/><ellipse class="cls-11" cx="958.86" cy="673.73" rx="3.82" ry="26.8" transform="translate(-186.25 922.83) rotate(-47.37)"/><circle class="cls-12" cx="887.99" cy="688.82" r="11.56"/><ellipse class="cls-1" cx="890.81" cy="673.73" rx="1.43" ry="1.96" transform="translate(-199 918.18) rotate(-49.74)"/><ellipse class="cls-1" cx="968" cy="719.62" rx="1.43" ry="1.96" transform="translate(-206.71 993.33) rotate(-49.74)"/><ellipse class="cls-1" cx="950.9" cy="716.72" rx="1.96" ry="1.43" transform="translate(105.06 1554.84) rotate(-81.74)"/><ellipse class="cls-1" cx="897.07" cy="669.92" rx="1.43" ry="1.96" transform="translate(-193.89 921.61) rotate(-49.74)"/><ellipse class="cls-1" cx="954.26" cy="725.64" rx="1.43" ry="1.96" transform="translate(-216.17 984.97) rotate(-49.74)"/><path class="cls-10" d="M922.18,665.4c1,1.4,2.08,2.87,2.3,4.26a5.51,5.51,0,0,1-.85,3.28c-2.14,4.7-.85,11.57,3.32,17.73l6.61-12.38c4.76,3.68,5.3,9.41,4.91,13.73s-.56,9.62,3.73,13.83c4.17-2.35,6.42-6.86,6.14-12.26l6.33,7.13c-.49,6.55,7.19,14.27,14,20.28,3.91-7.4,7.66-16.5,1.59-26.74-3-5.09-8-9.47-12.76-13.64-9-7.86-23.34-24.06-33.49-29.25C911.55,645,916.33,656.89,922.18,665.4Z"/><ellipse class="cls-7" cx="892.89" cy="736.08" rx="9.15" ry="12.01" transform="translate(-225.14 1034.53) rotate(-54.45)"/><circle class="cls-12" cx="932.3" cy="725.23" r="11.56"/><ellipse class="cls-1" cx="608.17" cy="1218.6" rx="1.59" ry="2.14" transform="translate(-618.85 627.61) rotate(-37.76)"/><ellipse class="cls-1" cx="590.9" cy="1217.94" rx="2.39" ry="1.43" transform="matrix(0, -1, 1, 0, -629.56, 1803.61)"/><ellipse class="cls-1" cx="595.43" cy="1228.16" rx="1.59" ry="2.14" transform="translate(-627.37 621.81) rotate(-37.76)"/><path class="cls-2" d="M466.92,1234.79s-44.05,45-70.38,8.51c-29-40.26,62.34-83.8,65.39-75.65s-37.51-64.49-1-96.33,52.44,109,52.44,109L533,1194.31s82.18-50.45,98.07-13.88-42.79,63.3-62.36,63.5c0,0,4.5,121.37-33.07,102.19a61.73,61.73,0,0,0-5.66-2.51c-10.23-4-41.11-22.21-17.31-89L476,1228.54Z"/><path class="cls-3" d="M469.88,1272.39l-7.41,14.29a7.9,7.9,0,0,1-5.07,4.29c-3.14.7-4.31-1.51-4.71-3.82a10.71,10.71,0,0,1,1.05-6.59l7.65-14.76Z"/><path class="cls-3" d="M502.46,1283.76l-8.16,15.73a8.7,8.7,0,0,1-5.59,4.73c-3.46.77-4.75-1.66-5.19-4.21a11.7,11.7,0,0,1,1.16-7.25l8.43-16.27Z"/><path class="cls-3" d="M478.05,1232.08l-14.22,1.6a6.93,6.93,0,0,0-4.9,3,5.08,5.08,0,0,0,.41,6.9,6.82,6.82,0,0,0,5.87,2.3l13.8-1.61Z"/><path class="cls-3" d="M509.48,1252.68l4.64,15.88a11.25,11.25,0,0,1-.37,7.51c-1.49,3.44-3.64,3.21-5.38,2.16a8.58,8.58,0,0,1-3.6-5l-4.8-16.42Z"/><polygon class="cls-4" points="495.11 1216.09 448.32 1255.63 501.34 1296.86 515.25 1231.76 495.11 1216.09"/><path class="cls-3" d="M543,1236.84c-18.42-1.27-47.06-9.47-62.31-45.52-9.51-22.51-6.77-45.24,6.53-58.4,12.8-12.67,31.59-25.18,49.67-14.78a18.1,18.1,0,0,0,2.68,1.27c6.75,2.49,37.49,16.27,44.58,62.85a39.49,39.49,0,0,1,.09,11.63c-1.4,9.48-6.78,20.54-15.33,31.84C563,1233.52,553.7,1237.58,543,1236.84Z"/><path class="cls-22" d="M526.53,1156.54l-.06.63S521.14,1176,513,1175.59c-3.07-.15-4.28,0-6.58-.8-9.79-3.49-17.09-14.74-15.84-24.65a17.17,17.17,0,0,1,1.55-5.33,58.1,58.1,0,0,1,3.81-7.12C504.84,1124.18,528.11,1138.53,526.53,1156.54Z"/><path class="cls-23" d="M566.72,1176.83c3.75,5.46,7.35,14.44,1.92,26.53a12.68,12.68,0,0,1-14,7.47c-3.9-.6-8.45-2.69-13-7.86-5.9-6.66-6.39-16.2-4.48-23.33,1.63-6.06,5.51-14,14.65-12.9C557.36,1167.41,563,1171.34,566.72,1176.83Z"/><polyline class="cls-24" points="523.92 1181.51 521.11 1184.18 520.45 1188.21"/><path class="cls-25" d="M548.52,1258c7.69-3,2.78-19.12,10.19-22.62,2.14-1,4.89-.67,7.3-1.12,6.28-1.16,9.58-7.44,11.15-14s2-13.74,4.8-19.43c2.11-4.23,5.5-7.48,6.95-12.15,2.71-8.75-2-20.23-7.57-30-5.4-9.41-12.07-18.69-20.68-24.84-6.52-5.11-16.43-12.91-22.94-18-1.79-1.4-3.66-2.85-5.63-3.34-5.33-1.31-8.23,4.79-13.43,4.45-2-.13-4.1-1.22-6.16-1.9-8.66-2.84-16.12,1.93-20.21,8.62s-5.77,15.17-9.08,22.47c-.92,2-2.08,4.08-4.16,4.74s-4.68-.2-6.81.33a7.24,7.24,0,0,0-4,3.2c-3.47,5-4.65,12-3.22,19.29"/><path class="cls-10" d="M582,1099c12,9.33,17.21,25.58,11.65,36.3s-19.78,11.84-31.78,2.51-17.21-25.58-11.66-36.29S570,1089.65,582,1099"/><ellipse class="cls-11" cx="564.77" cy="1130.06" rx="3.92" ry="26.14" transform="translate(-660.55 822.51) rotate(-49.36)"/><ellipse class="cls-1" cx="503.83" cy="1140.34" rx="1.45" ry="1.94" transform="translate(-592.78 547.32) rotate(-37.76)"/><ellipse class="cls-1" cx="578.63" cy="1179.01" rx="1.45" ry="1.94" transform="translate(-600.79 601.22) rotate(-37.76)"/><ellipse class="cls-1" cx="562.95" cy="1178.41" rx="2.17" ry="1.29" transform="translate(-617.86 1736.3) rotate(-89.75)"/><ellipse class="cls-1" cx="508.96" cy="1135.22" rx="1.45" ry="1.94" transform="translate(-588.57 549.39) rotate(-37.76)"/><ellipse class="cls-1" cx="567.06" cy="1187.69" rx="1.45" ry="1.94" transform="translate(-608.53 595.96) rotate(-37.76)"/><path class="cls-10" d="M530.9,1126.46a13.5,13.5,0,0,1,2.58,4.33,7.18,7.18,0,0,1-.36,3.72c-1.33,5.48.67,12.82,5.16,19l4.4-14.57c4.71,3.31,5.91,9.51,6.1,14.31s.68,10.64,5,14.6c3.45-3.2,4.92-8.49,4-14.37l6.55,6.87c.37,7.25,8.2,14.56,15,20.13,2.59-8.71,4.82-19.25-1.88-29.56-3.33-5.14-8.31-9.19-13.11-13-9-7.26-23.87-22.86-33.6-27C518.86,1105.73,524.6,1118,530.9,1126.46Z"/><line class="cls-26" x1="500.6" y1="1198.81" x2="517.32" y2="1214.8"/><line class="cls-27" x1="492.65" y1="1144.1" x2="520.62" y2="1170.4"/><line class="cls-27" x1="537.98" y1="1180.16" x2="566.19" y2="1206.07"/><ellipse class="cls-1" cx="607.97" cy="742.04" rx="1.59" ry="2.14" transform="translate(-233.29 281.02) rotate(-21.95)"/><ellipse class="cls-1" cx="591.53" cy="736.7" rx="2.39" ry="1.43" transform="translate(-280.05 1101.38) rotate(-73.94)"/><ellipse class="cls-1" cx="593.11" cy="747.77" rx="1.59" ry="2.14" transform="translate(-236.5 275.88) rotate(-21.95)"/><path class="cls-2" d="M475,779.69S420,814,382.36,775.8c-41.51-42.14,79-79.12,83.66-70.38s-53.87-75.1-6.78-113,76.69,123,76.69,123l27.23,13.86s74.39-109.75,98-70.68-20.69,120.89-47,122.61c0,0,12.22,53.45-37.92,75.56-9.76,4.3-13.62,4.93-16,4.69a28.05,28.05,0,0,0-5,0c-8.32.67-31.19-2.67-15.63-64.15l-51-26Z"/><path class="cls-3" d="M486.48,798l-12.68,9.76a8.91,8.91,0,0,1-6.91,1.8c-3.65-.62-4.2-3-3.88-5.26a8.43,8.43,0,0,1,3.27-5.44l13.1-10.09Z"/><path class="cls-3" d="M513.92,808.89l-10.86,11.75a8.93,8.93,0,0,1-6.51,2.94c-3.7,0-4.66-2.3-4.72-4.54a8.51,8.51,0,0,1,2.31-5.91L505.37,801Z"/><path class="cls-3" d="M493,761.08l-16.25,3.09a8.43,8.43,0,0,0-5.37,3.38c-1.29,1.83-1.88,4.25,1.09,6.45a8.88,8.88,0,0,0,7,1.5l15.76-3.06Z"/><path class="cls-3" d="M524.3,782.35l13.09-9.21a8.92,8.92,0,0,1,7-1.5c3.62.78,4.08,3.23,3.66,5.42a8.47,8.47,0,0,1-3.5,5.3L531,791.87Z"/><polygon class="cls-4" points="511.19 744.11 460.87 786.58 525.76 819.45 535.85 756.6 511.19 744.11"/><path class="cls-3" d="M568.15,758.65c-21.34.86-55.11-3.65-76-35.88-13-20.12-11.95-41.83,2.18-55.71,13.6-13.36,34.11-27.24,55.91-19.48a21.94,21.94,0,0,0,3.21.9c8,1.59,44.7,11.12,57.13,54.17a30.53,30.53,0,0,1,1.17,10.94c-.75,9.08-5.94,20.1-14.76,31.7C590.92,753.28,580.58,758.14,568.15,758.65Z"/><path class="cls-28" d="M542,684.53c0,.2,0,.4,0,.6,0,0-4.42,18.32-13.86,18.85-3.55.2-4.93.5-7.65,0-11.61-2.18-21.05-12-20.51-21.42a14,14,0,0,1,1.29-5.2,53.53,53.53,0,0,1,3.74-7.13C514,656.49,542.15,667.4,542,684.53Z"/><path class="cls-29" d="M590.16,699.13c4.83,4.72,9.8,12.77,4.64,24.76-2.32,5.39-8.13,8.79-15.47,8.6-4.55-.12-10-1.58-15.74-5.94-7.42-5.6-8.86-14.53-7.31-21.46,1.33-5.88,5.07-13.8,15.72-13.78C578.51,691.31,585.31,694.38,590.16,699.13Z"/><polyline class="cls-30" points="541.25 708.33 538.25 711.16 537.86 715.03"/><path class="cls-31" d="M576.6,777.61c8.6-3.67,1.47-18.31,9.68-22.43,2.38-1.19,5.58-1.18,8.32-1.88,7.13-1.8,10.36-8.07,11.57-14.38s1-13.15,3.76-18.83c2-4.22,5.66-7.65,6.9-12.22,2.32-8.54-4.13-18.82-11.48-27.39-7.08-8.26-15.62-16.24-26.1-21.07L551.15,645a20.42,20.42,0,0,0-6.79-2.5c-6.27-.65-9.05,5.43-15.08,5.69-2.33.1-4.84-.69-7.27-1.1a21.81,21.81,0,0,0-22.51,10.38c-4.1,6.75-5.27,14.92-8.41,22.17-.87,2-2,4.07-4.36,4.92s-5.42.35-7.83,1.08a8.26,8.26,0,0,0-4.34,3.46c-3.56,5.08-4.27,11.84-2,18.53"/><path class="cls-10" d="M600.59,624.13c14.68,7.44,22.18,22.15,16.76,32.86s-21.73,13.36-36.41,5.92-22.18-22.15-16.76-32.86,21.73-13.36,36.41-5.92"/><ellipse class="cls-11" cx="583.64" cy="655.32" rx="4" ry="28.07" transform="translate(-273.28 844.44) rotate(-60.76)"/><ellipse class="cls-12" cx="514.59" cy="684.93" rx="12.42" ry="12.37" transform="translate(-328.96 834.46) rotate(-63.13)"/><ellipse class="cls-1" cx="523.43" cy="668.28" rx="1.5" ry="2.06" transform="translate(-309.26 833.23) rotate(-63.13)"/><ellipse class="cls-1" cx="604.09" cy="699.85" rx="1.5" ry="2.06" transform="translate(-293.21 922.47) rotate(-63.13)"/><ellipse class="cls-1" cx="585.95" cy="701.04" rx="1.5" ry="2.06" transform="translate(-60.4 55.26) rotate(-5.14)"/><ellipse class="cls-1" cx="519.77" cy="666.42" rx="1.5" ry="2.06" transform="translate(-309.61 828.94) rotate(-63.13)"/><ellipse class="cls-1" cx="591.55" cy="709.31" rx="1.5" ry="2.06" transform="translate(-308.53 916.48) rotate(-63.13)"/><path class="cls-10" d="M544.26,655.72c1.32,1.2,2.81,2.42,3.37,3.79a5.69,5.69,0,0,1-.07,3.54c-1,5.31,1.94,12,7.68,17.26L559,666.1c5.74,2.6,7.69,8.3,8.34,12.8s1.76,9.93,7.14,13.18c3.68-3.4,4.89-8.54,3.29-14l8.18,5.73c1.09,6.79,10.78,12.79,19.14,17.27,2.19-8.49,3.8-18.66-4.87-27.62-4.31-4.46-10.43-7.72-16.31-10.81-11.08-5.82-29.6-18.85-41.2-21.67C528.48,637.55,536.23,648.47,544.26,655.72Z"/><ellipse class="cls-7" cx="529.41" cy="730.95" rx="10.12" ry="13.2" transform="translate(-318.14 1041.17) rotate(-74.19)"/><ellipse class="cls-12" cx="571.46" cy="714.11" rx="13.36" ry="13.69" transform="translate(-323.81 901.19) rotate(-63.13)"/><ellipse class="cls-1" cx="262.13" cy="1216.68" rx="1.59" ry="2.14" transform="translate(-690.14 415.31) rotate(-37.76)"/><ellipse class="cls-1" cx="244.86" cy="1216.02" rx="2.39" ry="1.43" transform="matrix(0, -1, 1, 0, -972.2, 1455.66)"/><ellipse class="cls-1" cx="249.39" cy="1226.24" rx="1.59" ry="2.14" transform="translate(-698.66 409.51) rotate(-37.76)"/><ellipse class="cls-1" cx="231.14" cy="1199.91" rx="1.35" ry="1.81" transform="translate(-862.38 654.55) rotate(-52.59)"/><ellipse class="cls-1" cx="259.25" cy="1216.6" rx="1.59" ry="2.14" transform="translate(-690.69 413.52) rotate(-37.76)"/><ellipse class="cls-1" cx="241.97" cy="1215.94" rx="2.39" ry="1.43" transform="matrix(0, -1, 1, 0, -975, 1452.7)"/><ellipse class="cls-1" cx="246.51" cy="1226.16" rx="1.59" ry="2.14" transform="translate(-699.22 407.72) rotate(-37.76)"/><path class="cls-2" d="M116.19,1226.26s-48.15,42.47-76.92,8c-31.72-38,68.13-79,71.47-71.34s-41-60.82-1.06-90.85S167,1174.93,167,1174.93l21.44,13.16s89.82-47.59,107.19-13.09-46.77,59.69-68.16,59.87c0,0,4.92,114.47-36.14,96.38-2-.89-4.1-1.65-6.19-2.36-11.18-3.82-44.93-21-18.93-83.9l-40.13-24.63Z"/><path class="cls-3" d="M113.44,1262.65,106,1275a7.75,7.75,0,0,1-5.09,3.72c-3.15.6-4.33-1.31-4.72-3.31a8.07,8.07,0,0,1,1-5.7l7.68-12.78Z"/><path class="cls-3" d="M135.79,1277.64,128.35,1290a7.73,7.73,0,0,1-5.08,3.72c-3.16.6-4.33-1.31-4.73-3.31a8.07,8.07,0,0,1,1-5.7l7.68-12.78Z"/><path class="cls-3" d="M121.64,1227.75l-14.27,1.38a7.17,7.17,0,0,0-4.91,2.6c-1.26,1.55-2,3.7.41,6a7.44,7.44,0,0,0,5.89,2l13.84-1.39Z"/><path class="cls-3" d="M154.16,1249.11l3.16,14.22a8.45,8.45,0,0,1-1,6.41c-1.81,2.79-3.93,2.33-5.57,1.23a7.75,7.75,0,0,1-3.13-4.78l-3.27-14.69Z"/><polygon class="cls-4" points="138.75 1213.9 91.81 1248.13 145.01 1283.82 158.97 1227.46 138.75 1213.9"/><path class="cls-3" d="M186.65,1232.18c-18.48-1.1-47.22-8.19-62.51-39.41-9.55-19.48-6.8-39.16,6.55-50.56,12.84-11,31.69-21.79,49.84-12.79a19.88,19.88,0,0,0,2.68,1.1c6.77,2.16,37.62,14.09,44.73,54.41A29.66,29.66,0,0,1,228,1195c-1.41,8.21-6.8,17.79-15.38,27.57C206.73,1229.31,197.4,1232.83,186.65,1232.18Z"/><path class="cls-32" d="M170.28,1162.35a5.43,5.43,0,0,1-.06.55s-5.34,16.29-13.53,15.94c-3.07-.13-4.29,0-6.59-.69-9.83-3-17.15-12.76-15.89-21.34a13.15,13.15,0,0,1,1.55-4.62,48.66,48.66,0,0,1,3.82-6.16C148.53,1134.33,171.87,1146.75,170.28,1162.35Z"/><path class="cls-33" d="M210.6,1179.91c3.77,4.73,7.39,12.51,1.94,23-2.45,4.7-7.75,7.29-14.07,6.46-3.91-.51-8.47-2.32-13.07-6.8-5.92-5.76-6.42-14-4.5-20.19,1.64-5.25,5.53-12.13,14.7-11.17C201.22,1171.76,206.82,1175.16,210.6,1179.91Z"/><polyline class="cls-34" points="167.67 1183.96 164.84 1186.28 164.18 1189.77"/><path class="cls-35" d="M192.34,1250.21c7.72-2.58,2.8-16.55,10.23-19.58,2.15-.87,4.91-.58,7.33-1,6.3-1,9.6-6.44,11.18-12.08s2-11.89,4.82-16.82c2.11-3.66,5.52-6.47,7-10.52,2.72-7.58-2-17.52-7.6-26-5.41-8.15-12.11-16.18-20.74-21.51l-23-15.59a17.33,17.33,0,0,0-5.65-2.89c-5.35-1.14-8.25,4.15-13.48,3.86-2-.12-4.11-1.06-6.17-1.65-8.69-2.46-16.18,1.67-20.28,7.46s-5.79,13.13-9.11,19.45c-.92,1.77-2.09,3.54-4.17,4.11s-4.71-.17-6.84.28a7.15,7.15,0,0,0-4,2.77c-3.49,4.31-4.67,10.41-3.23,16.71"/><path class="cls-10" d="M225.88,1112.51c12,8.08,17.28,22.14,11.7,31.42s-19.85,10.25-31.89,2.17S188.42,1124,194,1114.68s19.85-10.25,31.88-2.17"/><ellipse class="cls-11" cx="208.66" cy="1139.42" rx="3.59" ry="24.77" transform="matrix(0.59, -0.81, 0.81, 0.59, -832.74, 632.16)"/><ellipse class="cls-12" cx="150.92" cy="1166.41" rx="7.29" ry="6.88" transform="translate(-1019.85 1278.61) rotate(-88.1)"/><ellipse class="cls-13" cx="191.39" cy="1192.77" rx="7.4" ry="7.8" transform="translate(-53.47 9.82) rotate(-2.58)"/><ellipse class="cls-1" cx="147.5" cy="1148.32" rx="1.35" ry="1.81" transform="translate(-854.23 567.87) rotate(-52.59)"/><ellipse class="cls-1" cx="222.56" cy="1181.8" rx="1.35" ry="1.81" transform="translate(-851.37 640.63) rotate(-52.59)"/><ellipse class="cls-1" cx="206.82" cy="1181.28" rx="1.88" ry="1.3" transform="translate(-975.7 1380.87) rotate(-89.65)"/><ellipse class="cls-1" cx="152.66" cy="1143.89" rx="1.35" ry="1.81" transform="translate(-848.69 570.23) rotate(-52.59)"/><ellipse class="cls-1" cx="210.95" cy="1189.31" rx="1.35" ry="1.81" transform="translate(-861.89 634.36) rotate(-52.59)"/><path class="cls-10" d="M174.67,1136.31a11.54,11.54,0,0,1,2.59,3.74,5.55,5.55,0,0,1-.36,3.23c-1.34,4.74.67,11.1,5.17,16.4l4.42-12.62c4.73,2.88,5.93,8.24,6.11,12.4s.69,9.2,5.06,12.64c3.45-2.78,4.93-7.35,4-12.44l6.57,5.94c.37,6.28,8.23,12.61,15.06,17.43,2.6-7.54,4.84-16.67-1.89-25.59-3.34-4.45-8.34-8-13.15-11.3-9.07-6.28-23.95-19.79-33.71-23.38C162.59,1118.35,168.35,1129,174.67,1136.31Z"/><ellipse class="cls-7" cx="154.61" cy="1202.02" rx="7.1" ry="7.47"/><ellipse class="cls-1" cx="1318.39" cy="222.63" rx="1.59" ry="2.14" transform="translate(139.76 853.93) rotate(-37.76)"/><ellipse class="cls-1" cx="1301.11" cy="221.97" rx="2.39" ry="1.43" transform="matrix(0, -1, 1, 0, 1073.57, 1522.11)"/><ellipse class="cls-1" cx="1305.65" cy="232.19" rx="1.59" ry="2.14" transform="translate(131.24 848.13) rotate(-37.76)"/><path class="cls-2" d="M871.51,272.26c-14,40-40.47,63.51-63.09,60.32-1.31-.18-12.85-2-20.27-11.75-23-30.23,21.15-100.37,28.2-98.12a2.77,2.77,0,0,1,.62.37c.15-.21-76.7-41.11-73.71-77.09,1.33-15.92,18.35-31.58,35.48-34,39.84-5.71,126.56,103.2,97.72,74h0l29.73-6.67c-15.34-58.85-1.51-106.64,24.67-117.46,13.73-5.67,31.39-1.39,43,7.2,27.07,20,14.4,64,13.36,71.4-3.72,26.28-11.36,41.58-18.18,49.06,40,35.26,62.93,70,59.15,86.59a39.7,39.7,0,0,1-8,16.21c-7.49,8.38-17.25,10.22-20.09,10.72-17.72,3.08-32.64-8.71-40.42-14.85-17.71-14-28.61-25.75-31.72-35.25l-52.31,6Z"/><path class="cls-3" d="M885.89,284.3l-5.27,13a7.82,7.82,0,0,1-4.44,4.44c-3,1.15-4.54-.44-5.28-2.26a7.36,7.36,0,0,1,.06-5.57l5.45-13.48Z"/><path class="cls-3" d="M920.17,282.42l-4.11,13.45a7.87,7.87,0,0,1-4,4.82c-2.94,1.41-4.57-.05-5.47-1.8a7.39,7.39,0,0,1-.42-5.56l4.25-13.9Z"/><path class="cls-3" d="M882,251.76l-11.16,9.32a7.55,7.55,0,0,0-2.73,4.82c-.24,1.91.28,4,3.44,4.3a8,8,0,0,0,5.94-1.91l10.79-9.08Z"/><path class="cls-3" d="M914.1,238.88l9.34-10.52a7.87,7.87,0,0,1,5.67-2.69c3.25-.06,4.14,1.94,4.22,3.9a7.42,7.42,0,0,1-1.92,5.24l-9.66,10.87Z"/><polygon class="cls-4" points="889.57 226.27 871.43 288.79 940.15 281.76 915.68 223.6 889.57 226.27"/><path class="cls-3" d="M944.29,206.13c-16.15,12.26-44.89,27.08-78.64,13.32-21.06-8.59-32-26.08-28.54-44.56,3.34-17.78,11.77-39.73,32.95-45.52a22.91,22.91,0,0,0,3-1c7.09-3.11,40.84-15.62,73.88,11.15a28.83,28.83,0,0,1,6.85,7.88c4.35,7.48,6.29,18.88,5.72,32.69C959.1,189.59,953.68,199,944.29,206.13Z"/><path class="cls-36" d="M884.1,162.12l.3.48s5.86,16.9-1.4,22.17c-2.73,2-3.68,2.92-6.12,3.9-10.39,4.21-23,1.24-27.37-6.59a13.07,13.07,0,0,1-1.63-4.81,50.07,50.07,0,0,1-.67-7.61C847.39,154.06,875.45,148.34,884.1,162.12Z"/><path class="cls-37" d="M930.07,149.06c6.28,1.3,14.38,5.18,16.41,17.4.91,5.49-2,11.19-8,14.8a25.56,25.56,0,0,1-15.62,3.33c-8.79-.67-14.52-7.06-16.83-13.39-2-5.38-3-13.63,5.47-19.07A25.64,25.64,0,0,1,930.07,149.06Z"/><path class="cls-7" d="M891.49,203.13,908,201.44s4,7.92-7,9C901,210.48,890.6,212.48,891.49,203.13Z"/><polyline class="cls-38" points="895.73 181.49 894.78 185.29 896.45 188.58"/><path class="cls-39" d="M959.49,218.7c5-7.35-8.22-15.38-3.77-22.88,1.29-2.17,3.85-3.81,5.68-5.77,4.78-5.09,4.13-11.76,1.87-17.42s-5.94-11-6.66-17c-.53-4.41.6-9-.75-13.29-2.53-8-13-12.92-23.21-16-9.89-3-20.81-5-31.66-3.44-8.46.83-21.35,2.08-29.82,2.92a19,19,0,0,0-6.71,1.48c-5.33,2.69-4.44,9-9.12,12.28-1.81,1.27-4.22,1.92-6.37,2.85a20.73,20.73,0,0,0-12.66,19.83c.19,7.5,3.45,14.62,4.66,22,.33,2.06.47,4.29-1,6.17s-4.15,3-5.7,4.87a7.9,7.9,0,0,0-1.7,5c-.23,5.88,2.67,11.65,7.95,15.8"/><path class="cls-10" d="M899.94,83.82c15.54-1.59,29.08,6.31,30.24,17.65s-10.5,21.81-26,23.4-29.08-6.31-30.24-17.65,10.5-21.81,26-23.4"/><ellipse class="cls-11" cx="902.4" cy="117.42" rx="26.64" ry="3.8" transform="translate(-5.44 54.7) rotate(-3.46)"/><ellipse class="cls-12" cx="862.73" cy="177.93" rx="11.74" ry="11.79" transform="translate(-13.62 88.69) rotate(-5.84)"/><ellipse class="cls-1" cx="860.8" cy="159.04" rx="1.95" ry="1.42" transform="translate(-11.71 88.39) rotate(-5.84)"/><ellipse class="cls-1" cx="941.56" cy="142.5" rx="1.95" ry="1.42" transform="translate(-9.61 96.52) rotate(-5.84)"/><ellipse class="cls-1" cx="927.69" cy="152.75" rx="1.42" ry="1.95" transform="translate(101.36 601.21) rotate(-37.84)"/><ellipse class="cls-1" cx="866.92" cy="158.91" rx="1.95" ry="1.42" transform="translate(-6.52 276.85) rotate(-18.08)"/><ellipse class="cls-1" cx="936.4" cy="156.48" rx="1.95" ry="1.42" transform="translate(-11.06 96.07) rotate(-5.84)"/><path class="cls-10" d="M871.15,137.94c1.67.27,3.49.49,4.64,1.29a5.43,5.43,0,0,1,1.76,2.87c1.89,4.77,7.7,8.59,15,9.84l-4.3-13.26c5.92-.87,10.39,2.69,13.22,5.94s6.5,7,12.46,6.86c1.2-4.6-.47-9.32-4.54-12.84l9.47.38c4.35,4.86,15.17,4.69,24.15,4-2.61-7.9-6.54-16.85-18.06-19.56-5.73-1.35-12.28-.82-18.57-.27-11.83,1-33.31.13-44,3.82C849.24,131.51,861,136.27,871.15,137.94Z"/><ellipse class="cls-13" cx="922.46" cy="171.56" rx="12.62" ry="12.42" transform="translate(719.75 1087.68) rotate(-88.06)"/><path class="cls-2" d="M162.31,273.08c-14.06,40-40.48,63.51-63.1,60.32-1.31-.19-12.84-2-20.26-11.75-23-30.24,21.14-100.38,28.19-98.12a2.65,2.65,0,0,1,.62.36c.15-.2-76.7-41.1-73.7-77.08,1.32-15.92,18.34-31.59,35.48-34,39.84-5.71,126.55,103.2,97.71,74h0L197,180.14c-15.33-58.86-1.5-106.64,24.67-117.46,13.74-5.68,31.4-1.39,43,7.2,27.08,20,14.41,64,13.36,71.4-3.71,26.27-11.35,41.58-18.18,49.06,40,35.26,62.94,70,59.15,86.59a39.76,39.76,0,0,1-7.94,16.21c-7.49,8.38-17.25,10.22-20.09,10.71-17.72,3.08-32.65-8.7-40.43-14.85-17.7-14-28.6-25.75-31.72-35.24l-52.3,6Z"/><path class="cls-3" d="M176.69,285.11l-5.28,13a7.81,7.81,0,0,1-4.43,4.44c-3,1.15-4.55-.44-5.29-2.26a7.43,7.43,0,0,1,.06-5.58l5.46-13.48Z"/><path class="cls-3" d="M211,283.24l-4.12,13.45a7.85,7.85,0,0,1-4,4.81c-2.93,1.41-4.57,0-5.46-1.79a7.44,7.44,0,0,1-.43-5.56l4.26-13.9Z"/><path class="cls-3" d="M172.76,252.57l-11.15,9.33a7.61,7.61,0,0,0-2.74,4.82c-.24,1.91.28,4,3.44,4.3a8,8,0,0,0,5.94-1.91l10.8-9.09Z"/><path class="cls-3" d="M204.9,239.7l9.34-10.52a7.88,7.88,0,0,1,5.67-2.7c3.25-.06,4.13,1.94,4.22,3.91a7.41,7.41,0,0,1-1.93,5.23l-9.65,10.87Z"/><polygon class="cls-4" points="180.37 227.09 162.22 289.6 230.94 282.58 206.48 224.41 180.37 227.09"/><path class="cls-3" d="M235.08,206.94c-16.15,12.27-44.88,27.09-78.63,13.32-21.06-8.59-32-26.07-28.54-44.56,3.33-17.77,11.76-39.72,33-45.51a21.42,21.42,0,0,0,3-1c7.09-3.11,40.84-15.61,73.89,11.16a28.86,28.86,0,0,1,6.85,7.88c4.35,7.47,6.29,18.87,5.71,32.69C249.89,190.41,244.48,199.81,235.08,206.94Z"/><path class="cls-36" d="M174.9,162.93l.3.49s5.86,16.89-1.41,22.16c-2.72,2-3.68,2.92-6.12,3.91-10.39,4.2-22.94,1.24-27.37-6.59a13.29,13.29,0,0,1-1.62-4.82,49.79,49.79,0,0,1-.68-7.61C138.19,154.88,166.25,149.16,174.9,162.93Z"/><path class="cls-37" d="M220.86,149.88c6.29,1.3,14.38,5.18,16.41,17.4.92,5.49-2,11.19-8,14.8a25.61,25.61,0,0,1-15.61,3.33c-8.8-.68-14.53-7.06-16.84-13.4-2-5.38-3-13.62,5.48-19.06A25.6,25.6,0,0,1,220.86,149.88Z"/><path class="cls-7" d="M182.29,204l16.48-1.69s4,7.91-6.94,9C191.83,211.3,181.39,213.29,182.29,204Z"/><polyline class="cls-38" points="186.52 182.31 185.58 186.11 187.25 189.4"/><path class="cls-39" d="M250.29,219.51c5-7.34-8.22-15.37-3.77-22.88,1.28-2.16,3.84-3.8,5.68-5.76,4.77-5.1,4.13-11.76,1.87-17.42s-5.94-11-6.66-17c-.53-4.41.59-9-.76-13.29-2.52-8-13-12.92-23.21-16-9.89-3-20.81-5-31.66-3.45-8.46.84-21.35,2.09-29.81,2.92a19.4,19.4,0,0,0-6.71,1.48c-5.33,2.7-4.44,9-9.12,12.28-1.81,1.28-4.22,1.93-6.38,2.85a20.73,20.73,0,0,0-12.65,19.84c.19,7.49,3.45,14.61,4.65,22,.34,2.06.47,4.3-1,6.18s-4.15,3.05-5.7,4.86a7.91,7.91,0,0,0-1.69,5c-.23,5.88,2.67,11.64,7.94,15.8"/><path class="cls-10" d="M190.74,84.63C206.28,83,219.81,91,221,102.28s-10.49,21.81-26,23.4S165.86,119.37,164.7,108s10.5-21.82,26-23.41"/><ellipse class="cls-11" cx="193.19" cy="118.23" rx="26.64" ry="3.8" transform="translate(-6.79 11.88) rotate(-3.46)"/><ellipse class="cls-12" cx="153.53" cy="178.74" rx="11.74" ry="11.79" transform="translate(-17.39 16.55) rotate(-5.84)"/><ellipse class="cls-1" cx="151.6" cy="159.86" rx="1.95" ry="1.42" transform="translate(-15.48 16.25) rotate(-5.84)"/><ellipse class="cls-1" cx="232.36" cy="143.31" rx="1.95" ry="1.42" transform="translate(-13.37 24.38) rotate(-5.84)"/><ellipse class="cls-1" cx="218.49" cy="153.56" rx="1.42" ry="1.95" transform="translate(-48.26 166.32) rotate(-37.84)"/><ellipse class="cls-1" cx="157.72" cy="159.73" rx="1.95" ry="1.42" transform="translate(-41.78 56.82) rotate(-18.08)"/><ellipse class="cls-1" cx="227.2" cy="157.3" rx="1.95" ry="1.42" transform="translate(-14.82 23.93) rotate(-5.84)"/><path class="cls-10" d="M162,138.75c1.67.28,3.49.49,4.64,1.3a5.38,5.38,0,0,1,1.75,2.87c1.9,4.77,7.71,8.58,15,9.84L179,139.49c5.91-.86,10.39,2.69,13.22,5.95s6.5,7,12.46,6.86c1.19-4.6-.48-9.33-4.54-12.84l9.47.38c4.34,4.86,15.17,4.68,24.14,4-2.6-7.9-6.54-16.85-18.05-19.56-5.73-1.34-12.29-.81-18.57-.27-11.84,1-33.31.13-44,3.83C140,132.33,151.82,137.08,162,138.75Z"/><ellipse class="cls-13" cx="213.25" cy="172.37" rx="12.62" ry="12.42" transform="translate(33.76 379.67) rotate(-88.06)"/><ellipse class="cls-1" cx="1312.8" cy="219.85" rx="1.59" ry="2.14" transform="translate(140.29 849.93) rotate(-37.76)"/><ellipse class="cls-1" cx="1295.52" cy="219.19" rx="2.39" ry="1.43" transform="matrix(0, -1, 1, 0, 1070.77, 1513.76)"/><ellipse class="cls-1" cx="1300.05" cy="229.41" rx="1.59" ry="2.14" transform="translate(131.77 844.13) rotate(-37.76)"/><path class="cls-2" d="M1213.45,252.79c-10.77,34.66-31.65,54.75-49.8,51.7A26.5,26.5,0,0,1,1147.27,294c-18.78-26.58,15.73-87,21.4-85a2.06,2.06,0,0,1,.5.33c.12-.18-61.92-36.7-60-68,.86-13.84,14.31-27.25,28-29.18,31.84-4.48,102.6,91.33,79.15,65.61h0l23.73-5.43c-13-51.39-2.49-92.79,18.34-101.88,10.93-4.77,25.13-.82,34.54,6.79,21.93,17.74,12.31,55.87,11.56,62.28-2.66,22.81-8.59,36-14,42.45,32.44,31.17,51.25,61.64,48.42,76.06a34.5,34.5,0,0,1-6.17,14,26.15,26.15,0,0,1-16,9.07c-14.15,2.46-26.25-8-32.55-13.41-14.35-12.38-20.62-28.32-23.23-36.62l-44.42,10.17Z"/><path class="cls-3" d="M1219.27,277.43l-5.6,14.13a8.44,8.44,0,0,1-4.71,4.81c-3.23,1.24-4.82-.48-5.61-2.45a8.21,8.21,0,0,1,.07-6.05l5.78-14.6Z"/><path class="cls-3" d="M1255.65,275.4,1251.28,290a8.5,8.5,0,0,1-4.28,5.22c-3.11,1.53-4.85-.05-5.8-1.94a8.22,8.22,0,0,1-.45-6l4.52-15.07Z"/><path class="cls-3" d="M1215.1,242.17l-11.84,10.1a8.28,8.28,0,0,0-2.9,5.23c-.26,2.07.3,4.28,3.65,4.66a8.43,8.43,0,0,0,6.3-2.07l11.46-9.85Z"/><path class="cls-3" d="M1249.21,228.22l9.91-11.4a8.24,8.24,0,0,1,6-2.92c3.45-.07,4.39,2.1,4.48,4.23a8.1,8.1,0,0,1-2,5.67l-10.25,11.78Z"/><polygon class="cls-4" points="1223.17 214.55 1203.92 282.29 1276.85 274.68 1250.88 211.66 1223.17 214.55"/><path class="cls-3" d="M1280.29,194.2c-15.87,12.3-44.11,27.18-77.28,13.37-20.7-8.63-31.46-26.17-28-44.72,3.27-17.84,11.56-39.86,32.38-45.68a20.33,20.33,0,0,0,2.93-1c7-3.12,40.14-15.67,72.62,11.2a28.65,28.65,0,0,1,6.73,7.91c4.28,7.5,6.18,18.94,5.62,32.8C1294.85,177.6,1289.52,187,1280.29,194.2Z"/><path class="cls-5" d="M1221.14,150l.3.49s5.76,17-1.38,22.24c-2.69,2-3.62,2.93-6,3.92-10.21,4.22-22.55,1.25-26.9-6.61a13.5,13.5,0,0,1-1.6-4.83,51.87,51.87,0,0,1-.66-7.64C1185.06,142,1212.64,136.21,1221.14,150Z"/><path class="cls-6" d="M1266.32,136.93c6.17,1.31,14.13,5.2,16.12,17.46.9,5.51-2,11.23-7.81,14.86a24.77,24.77,0,0,1-15.35,3.34c-8.64-.68-14.27-7.09-16.54-13.44-1.93-5.4-3-13.68,5.38-19.14A24.76,24.76,0,0,1,1266.32,136.93Z"/><path class="cls-7" d="M1228.4,191.19l16.2-1.69s4,7.94-6.82,9.07C1237.78,198.57,1227.52,200.57,1228.4,191.19Z"/><polyline class="cls-8" points="1232.57 169.47 1231.64 173.29 1233.28 176.59"/><path class="cls-9" d="M1295.24,206.81c4.89-7.37-8.08-15.43-3.71-23,1.26-2.17,3.78-3.82,5.58-5.78,4.69-5.12,4.06-11.8,1.84-17.48s-5.84-11.07-6.55-17c-.52-4.43.59-9.05-.74-13.34-2.48-8-12.73-13-22.81-16-9.72-3-20.45-5-31.11-3.45l-29.31,2.92a18.52,18.52,0,0,0-6.59,1.49c-5.24,2.71-4.36,9-9,12.32-1.77,1.28-4.14,1.94-6.26,2.86a20.86,20.86,0,0,0-12.44,19.91c.19,7.52,3.39,14.67,4.58,22.09.33,2.07.46,4.31-1,6.19s-4.08,3.07-5.6,4.89a8,8,0,0,0-1.66,5c-.23,5.9,2.62,11.69,7.8,15.86"/><path class="cls-10" d="M1236.71,69.46c15.27-1.6,28.57,6.33,29.71,17.71s-10.31,21.89-25.59,23.48-28.57-6.33-29.71-17.71,10.31-21.89,25.59-23.48"/><ellipse class="cls-11" cx="1239.12" cy="103.18" rx="26.18" ry="3.81" transform="translate(-4.01 76.65) rotate(-3.54)"/><ellipse class="cls-12" cx="1200.14" cy="165.9" rx="11.54" ry="11.83" transform="matrix(1, -0.02, 0.02, 1, -2.63, 20.3)"/><ellipse class="cls-13" cx="1259.81" cy="158.8" rx="12.62" ry="12.42" transform="translate(1058.43 1412.51) rotate(-88.06)"/><ellipse class="cls-1" cx="1198.24" cy="146.95" rx="1.92" ry="1.43" transform="translate(-8.88 131.58) rotate(-6.26)"/><ellipse class="cls-1" cx="1277.61" cy="128.34" rx="1.92" ry="1.43" transform="translate(-6.38 140.12) rotate(-6.26)"/><ellipse class="cls-1" cx="1263.98" cy="140.63" rx="1.41" ry="1.94" transform="translate(158.46 769.32) rotate(-35.97)"/><ellipse class="cls-1" cx="1204.25" cy="146.81" rx="1.92" ry="1.42" transform="translate(19.14 406.19) rotate(-19.3)"/><ellipse class="cls-1" cx="1272.54" cy="144.38" rx="1.92" ry="1.43" transform="translate(-8.16 139.67) rotate(-6.26)"/><path class="cls-10" d="M1208.41,124.77c1.65.27,3.43.49,4.56,1.29a5.53,5.53,0,0,1,1.73,2.89c1.86,4.78,7.57,8.61,14.72,9.87l-4.22-13.31c5.81-.87,10.21,2.7,13,6s6.39,7.05,12.25,6.88c1.17-4.62-.47-9.36-4.47-12.89l9.31.38c4.27,4.88,14.91,4.71,23.73,4-2.56-7.93-6.42-16.91-17.74-19.63-5.64-1.36-12.08-.82-18.25-.27-11.63,1-32.74.12-43.26,3.83C1186.87,118.32,1198.46,123.09,1208.41,124.77Z"/></svg>
